<svg viewBox="0 0 480 300" fill="none" xmlns="http://www.w3.org/2000/svg">
<g filter="url(#filter0_d_1_2343)">
<g clip-path="url(#clip0_1_2343)">
<g filter="url(#filter1_i_1_2343)">
<rect x="16" y="8" width="480" height="300" rx="16" fill="#020D12"/>
</g>
<rect x="16.5" y="8.5" width="479" height="299" rx="15.5" stroke="#051A24"/>
<g filter="url(#filter2_di_1_2343)">
<rect x="16" y="8" width="480" height="297" rx="16" fill="#031016"/>
<rect x="16.5" y="8.5" width="479" height="296" rx="15.5" stroke="#051A24"/>
</g>
<path opacity="0.05" fill-rule="evenodd" clip-rule="evenodd" d="M32 8C23.1634 8 16 15.1635 16 24V29C16 20.1635 23.1634 13 32 13H480C488.837 13 496 20.1634 496 29V24C496 15.1634 488.837 8 480 8H32Z" fill="url(#paint0_linear_1_2343)"/>
<mask id="mask0_1_2343" style="mask-type:alpha" maskUnits="userSpaceOnUse" x="189" y="8" width="257" height="1">
<rect x="189.985" y="8" width="255.424" height="1" fill="url(#paint1_radial_1_2343)"/>
</mask>
<g mask="url(#mask0_1_2343)">
<rect x="189.985" y="8" width="255.424" height="1" fill="#006496"/>
</g>
<mask id="mask1_1_2343" style="mask-type:alpha" maskUnits="userSpaceOnUse" x="495" y="60" width="1" height="168">
<rect x="496" y="60.5606" width="167.385" height="0.999991" transform="rotate(90 496 60.5606)" fill="url(#paint2_radial_1_2343)"/>
</mask>
<g mask="url(#mask1_1_2343)">
<rect x="496" y="60.5606" width="167.385" height="0.999991" transform="rotate(90 496 60.5606)" fill="#093043"/>
</g>
<g filter="url(#filter3_di_1_2343)">
<circle cx="29" cy="21" r="3" fill="#031016"/>
<circle cx="29" cy="21" r="2.5" stroke="#051A24"/>
</g>
<g filter="url(#filter4_di_1_2343)">
<circle cx="29" cy="292" r="3" fill="#031016"/>
<circle cx="29" cy="292" r="2.5" stroke="#051A24"/>
</g>
<g filter="url(#filter5_di_1_2343)">
<circle cx="483" cy="21" r="3" fill="#031016"/>
<circle cx="483" cy="21" r="2.5" stroke="#051A24"/>
</g>
<g filter="url(#filter6_di_1_2343)">
<circle cx="483" cy="292" r="3" fill="#031016"/>
<circle cx="483" cy="292" r="2.5" stroke="#051A24"/>
</g>
</g>
</g>
<!-- Rest of the SVG content -->
</svg>